<?xml version="1.0" encoding="utf-8" ?>
<svg xmlns="http://www.w3.org/2000/svg" xmlns:xlink="http://www.w3.org/1999/xlink" width="24" height="24" viewBox="0 0 24 24">
	<path transform="matrix(1 0 0 1 3.49805 3.49805)" d="M8.50195 13.2129C8.73242 13.2129 8.92383 13.1367 9.07617 12.9844C9.23242 12.8281 9.31055 12.6348 9.31055 12.4043C9.31055 12.1777 9.23242 11.9863 9.07617 11.8301C8.92383 11.6738 8.73242 11.5957 8.50195 11.5957C8.27148 11.5957 8.07812 11.6738 7.92188 11.8301C7.76953 11.9863 7.69336 12.1777 7.69336 12.4043C7.69336 12.6348 7.76953 12.8281 7.92188 12.9844C8.07812 13.1367 8.27148 13.2129 8.50195 13.2129ZM7.75195 9.73242L9.25195 9.73242L9.25195 3.69141L7.75195 3.69141L7.75195 9.73242ZM4.96289 17.0039L0 12.0469L0 4.96289L4.95703 0L12.041 0L17.0039 4.95703L17.0039 12.041L12.0469 17.0039L4.96289 17.0039ZM5.60156 15.5039L11.4023 15.5039L15.5039 11.4023L15.5039 5.60156L11.4023 1.5L5.60156 1.5L1.5 5.60156L1.5 11.4023L5.60156 15.5039Z" fill-rule="nonzero" fill="rgb(25, 50, 56)"/>
</svg>
