<?xml version="1.0" encoding="utf-8" ?>
<svg xmlns="http://www.w3.org/2000/svg" xmlns:xlink="http://www.w3.org/1999/xlink" width="24" height="24" viewBox="0 0 24 24">
	<path transform="matrix(1 0 0 1 4.5 3.89648)" d="M1.5 10.1016C1.5 11.1094 1.74023 12.0488 2.2207 12.9199C2.70117 13.7871 3.36328 14.4863 4.20703 15.0176C4.13281 14.877 4.08008 14.7363 4.04883 14.5957C4.01758 14.4551 4.00195 14.3086 4.00195 14.1562C4.00195 13.6914 4.08984 13.2559 4.26562 12.8496C4.44531 12.4395 4.70117 12.0684 5.0332 11.7363L7.5 9.30469L9.97852 11.7363C10.3105 12.0684 10.5625 12.4395 10.7344 12.8496C10.9102 13.2559 10.998 13.6914 10.998 14.1562C10.998 14.3086 10.9824 14.4551 10.9512 14.5957C10.9199 14.7363 10.8672 14.877 10.793 15.0176C11.6367 14.4863 12.2988 13.7871 12.7793 12.9199C13.2598 12.0488 13.5 11.1094 13.5 10.1016C13.5 9.26953 13.3457 8.48242 13.0371 7.74023C12.7285 6.99805 12.2832 6.33594 11.7012 5.75391C11.3652 5.96875 11.0137 6.13086 10.6465 6.24023C10.2832 6.34961 9.91016 6.4043 9.52734 6.4043C8.48438 6.4043 7.58398 6.0625 6.82617 5.37891C6.06836 4.69531 5.63477 3.84766 5.52539 2.83594C4.87695 3.37891 4.30273 3.94727 3.80273 4.54102C3.30273 5.13086 2.88086 5.73438 2.53711 6.35156C2.19727 6.96484 1.93945 7.58789 1.76367 8.2207C1.58789 8.85352 1.5 9.48047 1.5 10.1016ZM7.5 11.4023L6.07617 12.8027C5.89258 12.9863 5.75 13.1953 5.64844 13.4297C5.55078 13.6641 5.50195 13.9062 5.50195 14.1562C5.50195 14.6875 5.69727 15.1445 6.08789 15.5273C6.47852 15.9102 6.94922 16.1016 7.5 16.1016C8.05078 16.1016 8.52148 15.9102 8.91211 15.5273C9.30273 15.1445 9.49805 14.6875 9.49805 14.1562C9.49805 13.8867 9.44727 13.6406 9.3457 13.418C9.24805 13.1914 9.10742 12.9863 8.92383 12.8027L7.5 11.4023ZM7.00195 0L7.00195 2.40234C7.00195 3.10938 7.24414 3.70312 7.72852 4.18359C8.2168 4.66406 8.81641 4.9043 9.52734 4.9043C9.83203 4.9043 10.123 4.84766 10.4004 4.73438C10.6777 4.61719 10.9336 4.44531 11.168 4.21875L11.6074 3.7793C12.6582 4.45117 13.4863 5.34961 14.0918 6.47461C14.6973 7.59961 15 8.80859 15 10.1016C15 12.1953 14.2734 13.9688 12.8203 15.4219C11.3672 16.875 9.59375 17.6016 7.5 17.6016C5.40625 17.6016 3.63281 16.875 2.17969 15.4219C0.726562 13.9688 0 12.1953 0 10.1016C0 8.17188 0.628906 6.31445 1.88672 4.5293C3.14844 2.74023 4.85352 1.23047 7.00195 0Z" fill-rule="nonzero" fill="rgb(25, 50, 56)"/>
</svg>
