<?xml version="1.0" encoding="utf-8" ?>
<svg xmlns="http://www.w3.org/2000/svg" xmlns:xlink="http://www.w3.org/1999/xlink" width="24" height="24" viewBox="0 0 24 24">
	<path transform="matrix(1 0 0 1 2.84159 8.01279)" d="M3.76478 3.98722C3.76478 3.40271 3.86449 2.84198 4.04092 2.31654L0.943502 0C0.632341 0.618438 0.397051 1.26451 0.237634 1.93821C0.0782166 2.61191 -0.000991595 3.29491 9.3699e-06 3.98722C9.3699e-06 5.4201 0.339053 6.77167 0.941968 7.97136L4.03785 5.65098C3.94759 5.38291 3.87956 5.10931 3.83375 4.83019C3.78793 4.55106 3.76494 4.27007 3.76478 3.98722Z" fill-rule="nonzero" fill="rgb(251, 188, 5)"/>
	<path transform="matrix(1 0 0 1 3.78507 3)" d="M8.26131 3.68192C9.55766 3.68192 10.729 4.13142 11.6494 4.86781L14.3273 2.24981C12.6957 0.859115 10.6039 0 8.26131 0C4.62388 0 1.49731 2.03656 0 5.01278L3.09895 7.32933C3.81232 5.20762 5.84659 3.68192 8.26131 3.68192Z" fill-rule="nonzero" fill="rgb(234, 67, 53)"/>
	<path transform="matrix(1 0 0 1 3.78507 13.6707)" d="M8.26131 3.6474C5.84582 3.6474 3.81156 2.12171 3.09742 0L0 2.31654C1.49655 5.29276 4.62311 7.32933 8.26131 7.32933C10.5058 7.32933 12.6489 6.54922 14.2582 5.08642L11.3173 2.86039C10.4881 3.37203 9.44336 3.6474 8.26055 3.6474" fill-rule="nonzero" fill="rgb(52, 168, 83)"/>
	<path transform="matrix(1 0 0 1 12.0456 10.3638)" d="M8.78675 1.63615C8.78675 1.10458 8.70237 0.531577 8.57734 0L0 0L0 3.47712L4.93684 3.47712C4.69062 4.663 4.01866 5.57428 3.05753 6.16722L5.9977 8.39325C7.68755 6.85758 8.78675 4.57019 8.78675 1.63615Z" fill-rule="nonzero" fill="rgb(66, 133, 244)"/>
</svg>
