<?xml version="1.0" encoding="utf-8" ?>
<svg xmlns="http://www.w3.org/2000/svg" xmlns:xlink="http://www.w3.org/1999/xlink" width="24" height="24" viewBox="0 0 24 24">
	<path transform="matrix(1 0 0 1 3.49805 3.49805)" d="M7.37695 13.2539L9.62695 13.2539L9.62695 9.62695L13.2539 9.62695L13.2539 7.37695L9.62695 7.37695L9.62695 3.75L7.37695 3.75L7.37695 7.37695L3.75 7.37695L3.75 9.62695L7.37695 9.62695L7.37695 13.2539ZM1.81055 17.0039C1.30664 17.0039 0.878906 16.8281 0.527344 16.4766C0.175781 16.125 0 15.6973 0 15.1934L0 1.81055C0 1.30664 0.175781 0.878906 0.527344 0.527344C0.878906 0.175781 1.30664 0 1.81055 0L15.1934 0C15.6973 0 16.125 0.175781 16.4766 0.527344C16.8281 0.878906 17.0039 1.30664 17.0039 1.81055L17.0039 15.1934C17.0039 15.6973 16.8281 16.125 16.4766 16.4766C16.125 16.8281 15.6973 17.0039 15.1934 17.0039L1.81055 17.0039ZM1.81055 15.5039L15.1934 15.5039C15.2715 15.5039 15.3418 15.4727 15.4043 15.4102C15.4707 15.3438 15.5039 15.2715 15.5039 15.1934L15.5039 1.81055C15.5039 1.73242 15.4707 1.66211 15.4043 1.59961C15.3418 1.5332 15.2715 1.5 15.1934 1.5L1.81055 1.5C1.73242 1.5 1.66016 1.5332 1.59375 1.59961C1.53125 1.66211 1.5 1.73242 1.5 1.81055L1.5 15.1934C1.5 15.2715 1.53125 15.3438 1.59375 15.4102C1.66016 15.4727 1.73242 15.5039 1.81055 15.5039ZM1.5 1.5L1.5 1.58789L1.5 1.81055L1.5 15.1934L1.5 15.416L1.5 15.5039L1.5 15.416L1.5 15.1934L1.5 1.81055L1.5 1.58789L1.5 1.5Z" fill-rule="nonzero" fill="rgb(25, 50, 56)"/>
</svg>
