<?xml version="1.0" encoding="utf-8" ?>
<svg xmlns="http://www.w3.org/2000/svg" xmlns:xlink="http://www.w3.org/1999/xlink" width="24" height="24" viewBox="0 0 24 24">
	<path transform="matrix(1 0 0 1 4.5 2.53711)" d="M5.0625 12.5625L7.5 10.7109L9.88477 12.5449L8.9707 9.58594L11.4434 7.65234L8.4668 7.65234L7.5 4.67578L6.5332 7.65234L3.55664 7.65234L5.98242 9.58594L5.0625 12.5625ZM7.5 18.9434C5.33594 18.3535 3.54492 17.0801 2.12695 15.123C0.708984 13.166 0 10.9785 0 8.56055L0 2.80664L7.5 0L15 2.80664L15 8.56055C15 10.9785 14.291 13.166 12.873 15.123C11.4551 17.0801 9.66406 18.3535 7.5 18.9434ZM7.5 17.3613C9.23438 16.8105 10.668 15.7109 11.8008 14.0625C12.9336 12.4141 13.5 10.5801 13.5 8.56055L13.5 3.83789L7.5 1.59961L1.5 3.83789L1.5 8.56055C1.5 10.5801 2.06641 12.4141 3.19922 14.0625C4.33203 15.7109 5.76562 16.8105 7.5 17.3613Z" fill-rule="nonzero" fill="rgb(25, 50, 56)"/>
</svg>
